# xmcd
#
# Track frame offsets:
#	150
#	16058
#	30373
#	45368
#	57186
#	72367
#	85564
#	93553
#	106247
#	118904
#
# Disc length: 1768 seconds
# Revision: 0
# Processed by: cddbd v1.5.2PL0 Copyright (c) Steve Scherf et al.
# Submitted via: dBpowerAMP V12.0
#
DISCID=7006e60a
DTITLE=Jim Ford - Harlan County
DYEAR=1969
DGENRE=Country
TTITLE0=Harlan County
TTITLE1=I Wanta Make Her Love Me
TTITLE2=Changin' Colours
TTITLE3=Dr. Handy's Dandy Candy
TTITLE4=Love On My Brain
TTITLE5=Long Road Ahead
TTITLE6=Under Construction
TTITLE7=Workin' My Way To L.A.
TTITLE8=Spoonful
TTITLE9=To Make My Life Beautiful
EXTD=
EXTT0=
EXTT1=
EXTT2=
EXTT3=
EXTT4=
EXTT5=
EXTT6=
EXTT7=
EXTT8=
EXTT9=
PLAYORDER=
